<svg xmlns="http://www.w3.org/2000/svg" viewBox="0 0 512 512">
  <defs>
    <radialGradient id="bg" cx="50%" cy="35%" r="70%">
      <stop offset="0%" stop-color="#F4ECD8"/>
      <stop offset="100%" stop-color="#D9C394"/>
    </radialGradient>
    <linearGradient id="shell" x1="50%" y1="0%" x2="50%" y2="100%">
      <stop offset="0%" stop-color="#FFE08A"/>
      <stop offset="50%" stop-color="#FFC72C"/>
      <stop offset="100%" stop-color="#C88A00"/>
    </linearGradient>
    <clipPath id="shellClip">
      <path d="M 256 100
               C 110 100 80 230 90 320
               C 100 400 180 430 256 432
               C 332 430 412 400 422 320
               C 432 230 402 100 256 100 Z"/>
    </clipPath>
  </defs>
  <rect width="512" height="512" rx="96" fill="url(#bg)"/>
  <path d="M 256 100
           C 110 100 80 230 90 320
           C 100 400 180 430 256 432
           C 332 430 412 400 422 320
           C 432 230 402 100 256 100 Z"
        fill="url(#shell)" stroke="#0F1929" stroke-width="11" stroke-linejoin="round"/>
  <g clip-path="url(#shellClip)" stroke="#0F1929" stroke-width="7" fill="none" stroke-linecap="round" opacity="0.85">
    <line x1="256" y1="110" x2="256" y2="430"/>
    <line x1="256" y1="110" x2="200" y2="428"/>
    <line x1="256" y1="110" x2="312" y2="428"/>
    <line x1="256" y1="110" x2="148" y2="418"/>
    <line x1="256" y1="110" x2="364" y2="418"/>
    <line x1="256" y1="110" x2="100" y2="395"/>
    <line x1="256" y1="110" x2="412" y2="395"/>
    <line x1="256" y1="110" x2="92" y2="350"/>
    <line x1="256" y1="110" x2="420" y2="350"/>
  </g>
  <path d="M 220 105 Q 256 80 292 105" fill="#0F1929"/>
  <circle cx="256" cy="100" r="14" fill="#0F1929"/>
</svg>
